HIERARCHY
ROOT Hips
{
	OFFSET 0.000000 0.000000 0.000000
	CHANNELS 6 Xposition Yposition Zposition Xrotation Yrotation Zrotation
	JOINT LeftUpLeg_virtual
	{
		OFFSET 0.000000 0.000000 0.000000
		CHANNELS 3 Xrotation Yrotation Zrotation
		JOINT LeftUpLeg
		{
			OFFSET 10.205400 -3.823500 0.155100
			CHANNELS 3 Xrotation Yrotation Zrotation
			JOINT LeftLeg
			{
				OFFSET 0.708757 -12.982077 0.567790
				CHANNELS 3 Xrotation Yrotation Zrotation
				JOINT LeftFoot
				{
					OFFSET -0.708756 -10.717838 -2.184338
					CHANNELS 3 Xrotation Yrotation Zrotation
					JOINT LeftToeBase
					{
						OFFSET 0.108149 -7.191104 7.560241
						CHANNELS 3 Xrotation Yrotation Zrotation
						JOINT LeftToe_End
						{
							OFFSET 0.070230 0.081724 4.490308
							CHANNELS 3 Xrotation Yrotation Zrotation
							End Site
							{
								OFFSET 0 0 0
							}
						}
					}
				}
			}
		}
	}
	JOINT RightUpLeg_virtual
	{
		OFFSET 0.000000 0.000000 0.000000
		CHANNELS 3 Xrotation Yrotation Zrotation
		JOINT RightUpLeg
		{
			OFFSET -10.205400 -3.823500 0.005500
			CHANNELS 3 Xrotation Yrotation Zrotation
			JOINT RightLeg
			{
				OFFSET -0.708756 -12.982134 0.610632
				CHANNELS 3 Xrotation Yrotation Zrotation
				JOINT RightFoot
				{
					OFFSET 0.708754 -10.717769 -1.945823
					CHANNELS 3 Xrotation Yrotation Zrotation
					JOINT RightToeBase
					{
						OFFSET -0.108140 -7.191069 7.372968
						CHANNELS 3 Xrotation Yrotation Zrotation
						JOINT RightToe_End
						{
							OFFSET -0.070227 0.081735 4.479403
							CHANNELS 3 Xrotation Yrotation Zrotation
							End Site
							{
								OFFSET 0 0 0
							}
						}
					}
				}
			}
		}
	}
	JOINT Spine_virtual
	{
		OFFSET 0.000000 0.000000 0.000000
		CHANNELS 3 Xrotation Yrotation Zrotation
		JOINT Spine
		{
			OFFSET 0.000000 6.876099 0.125700
			CHANNELS 3 Xrotation Yrotation Zrotation
			JOINT Spine1
			{
				OFFSET 0.000000 5.730043 0.104720
				CHANNELS 3 Xrotation Yrotation Zrotation
				JOINT Spine1_split
				{
					OFFSET 0.000000 5.730043 0.104720
					CHANNELS 3 Xrotation Yrotation Zrotation
					JOINT Spine2
					{
						OFFSET 0.000000 5.730043 0.104720
						CHANNELS 3 Xrotation Yrotation Zrotation
						JOINT Neck_virtual
						{
							OFFSET 0.000000 0.000000 0.000000
							CHANNELS 3 Xrotation Yrotation Zrotation
							JOINT Neck
							{
								OFFSET 0.000000 10.314075 0.188496
								CHANNELS 3 Xrotation Yrotation Zrotation
								JOINT Head
								{
									OFFSET 0.000000 7.643700 -2.377400
									CHANNELS 3 Xrotation Yrotation Zrotation
									JOINT HeadTop_End
									{
										OFFSET 0.000000 43.788605 -13.619600
										CHANNELS 3 Xrotation Yrotation Zrotation
										End Site
										{
											OFFSET 0 0 0
										}
									}
								}
							}
						}
						JOINT LeftShoulder_virtual
						{
							OFFSET 0.000000 0.000000 0.000000
							CHANNELS 3 Xrotation Yrotation Zrotation
							JOINT LeftShoulder
							{
								OFFSET 2.196100 4.412489 0.087492
								CHANNELS 3 Xrotation Yrotation Zrotation
								JOINT LeftShoulder_split
								{
									OFFSET 2.196100 4.412489 0.087492
									CHANNELS 3 Xrotation Yrotation Zrotation
									JOINT LeftArm
									{
										OFFSET 8.771219 -2.981674 -0.026999
										CHANNELS 3 Xrotation Yrotation Zrotation
										JOINT LeftForeArm
										{
											OFFSET 8.512804 0.000000 -0.000000
											CHANNELS 3 Xrotation Yrotation Zrotation
											JOINT LeftHand
											{
												OFFSET 18.484802 0.000000 -0.000000
												CHANNELS 3 Xrotation Yrotation Zrotation
												End Site
												{
													OFFSET 0 0 0
												}
											}
										}
									}
								}
							}
						}
						JOINT RightShoulder_virtual
						{
							OFFSET 0.000000 0.000000 0.000000
							CHANNELS 3 Xrotation Yrotation Zrotation
							JOINT RightShoulder
							{
								OFFSET -2.196100 4.412496 0.070690
								CHANNELS 3 Xrotation Yrotation Zrotation
								JOINT RightShoulder_split
								{
									OFFSET -2.196100 4.412496 0.070690
									CHANNELS 3 Xrotation Yrotation Zrotation
									JOINT RightArm
									{
										OFFSET -8.771282 -2.981682 -0.094208
										CHANNELS 3 Xrotation Yrotation Zrotation
										JOINT RightForeArm
										{
											OFFSET -8.494598 0.000000 0.000000
											CHANNELS 3 Xrotation Yrotation Zrotation
											JOINT RightHand
											{
												OFFSET -18.483803 0.000000 0.000001
												CHANNELS 3 Xrotation Yrotation Zrotation
												End Site
												{
													OFFSET 0 0 0
												}
											}
										}
									}
								}
							}
						}
					}
				}
			}
		}
	}
}
MOTION
Frames: 7
Frame Time: 0.03333333
-0.507151 31.832943 -1.834886 0.000000 0.000000 0.000000 -24.355555 -10.437251 -1.469139 13.506531 22.531187 3.796284 43.371930 9.055718 -11.363130 -35.063988 26.647240 12.239773 -2.491596 -0.433924 -2.422916 0.000000 0.000000 0.000000 -23.432060 -9.450648 -1.713267 30.393590 -13.061401 0.779046 26.438844 -7.900476 -4.629877 -31.442841 -24.212044 1.330124 -8.745987 -0.414630 0.463904 0.000000 0.000000 0.000000 -23.641979 -9.640184 -1.511400 10.754154 -4.438792 -1.162345 2.873867 -1.880625 0.173439 0.717478 2.610078 -0.006077 0.000000 0.000000 0.000000 2.777607 -2.031541 -0.081381 0.645723 0.968427 -2.705153 -5.069305 -1.782850 4.552767 0.000000 0.000000 0.000000 3.801241 -2.273955 0.216470 0.078532 -17.626907 -11.692925 0.819111 -0.900002 -0.298854 -19.200422 2.938560 -38.108497 2.903327 -64.744606 3.395076 0.000000 0.000000 0.000000 3.503230 -1.933011 0.146999 0.370204 13.004364 16.780682 0.327668 0.488892 -0.697675 -10.953466 -4.528577 62.769882 -0.469465 41.618986 1.736390 0.000000 0.000000 0.000000 
-0.527912 31.804747 -1.835998 0.000000 0.000000 0.000000 -24.268173 -10.907995 -1.559996 12.600848 22.112046 5.150398 44.692872 8.628609 -11.532417 -34.004674 26.151287 11.513436 -2.509606 -0.210948 -2.795329 0.000000 0.000000 0.000000 -23.329901 -9.634565 -1.736868 30.209565 -13.540064 1.066590 26.340969 -7.952633 -4.629901 -31.662868 -24.308715 1.352017 -8.616183 -0.368875 0.298490 0.000000 0.000000 0.000000 -23.745011 -10.147306 -1.778227 10.899252 -4.646944 -1.235014 2.787983 -1.938341 0.183387 0.727472 2.151580 0.018425 0.000000 0.000000 0.000000 2.919153 -2.044550 -0.039787 0.691500 0.973888 -2.636763 -5.099487 -1.856718 4.726075 0.000000 0.000000 0.000000 3.723552 -2.288701 0.234184 0.101194 -17.633199 -11.710415 0.718364 -1.182651 -0.082004 -19.251156 2.897905 -38.180382 2.935226 -64.762529 3.445744 0.000000 0.000000 0.000000 3.403772 -1.974968 0.172691 0.362188 12.871741 16.697769 0.433153 0.086030 -0.641562 -11.151228 -4.701518 62.848928 -0.528399 41.918244 1.752819 0.000000 0.000000 0.000000 
-0.611984 31.813084 -1.823972 0.000000 0.000000 0.000000 -24.194700 -11.892016 -2.179384 10.177333 21.465936 7.579641 47.375524 7.924138 -11.662470 -32.295463 24.598032 10.547421 -2.697946 -0.024296 -3.133672 0.000000 0.000000 0.000000 -23.360516 -10.250068 -2.239088 30.270910 -14.115920 1.630181 25.865435 -7.885364 -4.244046 -32.366508 -24.222940 0.898014 -7.615947 -0.330475 0.182103 0.000000 0.000000 0.000000 -23.811976 -11.233551 -2.515285 10.970317 -4.826748 -1.276927 2.706554 -1.996340 0.204490 0.716435 1.819258 0.084784 0.000000 0.000000 0.000000 3.051703 -2.059200 0.008172 0.702806 0.958341 -2.494564 -5.180052 -2.051788 5.076913 0.000000 0.000000 0.000000 3.658334 -2.296424 0.242224 0.144114 -17.569033 -11.571210 0.641846 -1.346933 -0.023298 -19.496107 2.841592 -38.257071 2.975921 -64.773348 3.560916 0.000000 0.000000 0.000000 3.306920 -2.026161 0.188643 0.378591 12.667491 16.482763 0.543117 -0.177651 -0.541009 -11.363518 -4.957421 62.931867 -0.595189 42.250614 1.798595 0.000000 0.000000 0.000000 
-0.684339 31.840557 -1.794237 0.000000 0.000000 0.000000 -24.201966 -13.263539 -3.225984 6.633935 20.478970 10.476446 50.677804 6.927017 -11.585557 -30.310873 22.046509 9.165830 -3.015001 0.078817 -3.280902 0.000000 0.000000 0.000000 -23.556296 -11.329289 -3.144244 30.420064 -14.663349 2.221692 25.234595 -7.611931 -3.541383 -33.062951 -24.023041 0.361474 -6.236677 -0.294652 0.107549 0.000000 0.000000 0.000000 -23.885376 -12.813835 -3.596098 10.991818 -4.948800 -1.251716 2.648444 -2.029395 0.229529 0.714816 1.667627 0.129970 0.000000 0.000000 0.000000 3.130403 -2.070882 0.047521 0.682628 0.924065 -2.317466 -5.314684 -2.315807 5.501001 0.000000 0.000000 0.000000 3.599447 -2.295464 0.236865 0.200103 -17.443200 -11.296017 0.490500 -1.391991 -0.121894 -19.857472 2.824313 -38.316357 2.983452 -64.766647 3.679110 0.000000 0.000000 0.000000 3.230313 -2.068289 0.198731 0.404521 12.471598 16.211905 0.621406 -0.196834 -0.501351 -11.525943 -5.230605 63.003174 -0.637424 42.458969 1.845415 0.000000 0.000000 0.000000 
-0.720873 31.879120 -1.676344 0.000000 0.000000 0.000000 -24.314618 -14.860246 -4.483948 2.729930 18.945203 13.012881 53.673768 5.707855 -11.052765 -28.313607 18.714534 7.024569 -3.459917 0.080035 -3.057871 0.000000 0.000000 0.000000 -23.849629 -12.847583 -4.278623 30.428677 -15.036463 2.457910 24.597294 -6.875612 -2.664837 -33.125830 -23.774043 0.524542 -5.370241 -0.265184 0.049882 0.000000 0.000000 0.000000 -24.012819 -14.810027 -4.856639 11.008750 -5.016052 -1.174403 2.619278 -2.031754 0.249285 0.686578 1.598500 0.088850 0.000000 0.000000 0.000000 3.137561 -2.077767 0.071135 0.657416 0.902856 -2.153900 -5.477361 -2.565729 5.891924 0.000000 0.000000 0.000000 3.550264 -2.285210 0.222388 0.262673 -17.283637 -10.938206 0.278250 -1.360411 -0.353575 -20.216621 2.833674 -38.348200 2.948626 -64.796625 3.757052 0.000000 0.000000 0.000000 3.184851 -2.089711 0.199066 0.453723 12.316170 15.948283 0.639922 -0.058787 -0.540252 -11.629609 -5.470351 63.021158 -0.641615 42.478224 1.873419 0.000000 0.000000 0.000000 
-0.703721 31.916344 -1.464440 0.000000 0.000000 0.000000 -24.477755 -16.593494 -5.740141 -0.878995 16.906057 14.477462 55.700189 4.467388 -9.955694 -26.372571 15.057359 4.035406 -3.858565 -0.017860 -2.458563 0.000000 0.000000 0.000000 -24.133514 -14.698922 -5.406194 30.163106 -15.096045 2.151846 24.147656 -5.611197 -1.817376 -32.380704 -23.483876 1.520895 -5.237470 -0.235675 0.015295 0.000000 0.000000 0.000000 -24.237223 -17.029233 -6.106298 11.040582 -5.034331 -1.069209 2.622739 -2.009907 0.267681 0.637368 1.688589 0.043476 0.000000 0.000000 0.000000 3.083294 -2.078334 0.077887 0.648175 0.911854 -2.050954 -5.626967 -2.721615 6.148277 0.000000 0.000000 0.000000 3.523980 -2.271152 0.201628 0.321111 -17.129442 -10.579723 0.072361 -1.287172 -0.621797 -20.454736 2.846565 -38.353554 2.890003 -64.894344 3.775796 0.000000 0.000000 0.000000 3.171500 -2.085017 0.195181 0.533986 12.223695 15.748961 0.606083 0.161528 -0.602893 -11.682918 -5.656521 62.961135 -0.611129 42.417111 1.872146 0.000000 0.000000 0.000000 
-0.635862 31.954021 -1.173120 0.000000 0.000000 0.000000 -24.680166 -18.578617 -6.896696 -3.707134 14.464696 14.629118 56.322529 3.456937 -8.239537 -24.370994 11.522963 0.462752 -4.313631 -0.156522 -1.528084 0.000000 0.000000 0.000000 -24.353331 -16.825952 -6.412636 29.567414 -14.775929 1.372240 23.886669 -4.030490 -1.186413 -31.271850 -23.061628 2.723120 -5.108730 -0.205674 0.076310 0.000000 0.000000 0.000000 -24.583401 -19.378553 -7.246523 11.101962 -5.052915 -0.971409 2.650351 -1.986731 0.278179 0.628009 1.758672 -0.005329 0.000000 0.000000 0.000000 3.005215 -2.075796 0.070454 0.690342 0.944511 -2.026624 -5.735450 -2.761755 6.218771 0.000000 0.000000 0.000000 3.508007 -2.262281 0.182066 0.363346 -17.008896 -10.282436 -0.114123 -1.213854 -0.845979 -20.546088 2.842199 -38.370726 2.796530 -65.038933 3.718683 0.000000 0.000000 0.000000 3.192878 -2.067406 0.197626 0.656188 12.156927 15.620639 0.551565 0.377444 -0.610635 -11.668166 -5.784407 62.815884 -0.559307 42.406964 1.839108 0.000000 0.000000 0.000000 
